<?xml version="1.0" encoding="UTF-8" standalone="no"?><svg xmlns="http://www.w3.org/2000/svg" xmlns:xlink="http://www.w3.org/1999/xlink" contentScriptType="application/ecmascript" contentStyleType="text/css" height="376px" preserveAspectRatio="none" style="width:578px;height:376px;" version="1.1" viewBox="0 0 578 376" width="578px" zoomAndPan="magnify">
    <defs />
    <g>
        <line style="stroke: #A80036; stroke-width: 1.0; stroke-dasharray: 5.0,5.0;" x1="45" x2="45" y1="82.2969" y2="364.4922" />
        <line style="stroke: #A80036; stroke-width: 1.0; stroke-dasharray: 5.0,5.0;" x1="139" x2="139" y1="82.2969" y2="364.4922" />
        <line style="stroke: #A80036; stroke-width: 1.0; stroke-dasharray: 5.0,5.0;" x1="269.5" x2="269.5" y1="82.2969" y2="364.4922" />
        <line style="stroke: #A80036; stroke-width: 1.0; stroke-dasharray: 5.0,5.0;" x1="353.5" x2="353.5" y1="82.2969" y2="364.4922" />
        <line style="stroke: #A80036; stroke-width: 1.0; stroke-dasharray: 5.0,5.0;" x1="433" x2="433" y1="82.2969" y2="364.4922" />
        <line style="stroke: #A80036; stroke-width: 1.0; stroke-dasharray: 5.0,5.0;" x1="542" x2="542" y1="82.2969" y2="364.4922" /><text fill="#000000" font-family="sans-serif" font-size="14" lengthAdjust="spacingAndGlyphs" textLength="68" x="8" y="78.9951">Customer</text>
        <ellipse cx="45" cy="13" fill="#FEFECE" rx="8" ry="8" style="stroke: #A80036; stroke-width: 2.0;" />
        <path d="M45,21 L45,48 M32,29 L58,29 M45,48 L32,63 M45,48 L58,63 " fill="none" style="stroke: #A80036; stroke-width: 2.0;" />
        <rect fill="#FEFECE" height="30.2969" style="stroke: #A80036; stroke-width: 1.5;" width="95" x="92" y="51" /><text fill="#000000" font-family="sans-serif" font-size="14" lengthAdjust="spacingAndGlyphs" textLength="81" x="99" y="70.9951">CustomerUI</text>
        <rect fill="#FEFECE" height="30.2969" style="stroke: #A80036; stroke-width: 1.5;" width="96" x="221.5" y="51" /><text fill="#000000" font-family="sans-serif" font-size="14" lengthAdjust="spacingAndGlyphs" textLength="82" x="228.5" y="70.9951">Reservation</text>
        <rect fill="#FEFECE" height="30.2969" style="stroke: #A80036; stroke-width: 1.5;" width="52" x="327.5" y="51" /><text fill="#000000" font-family="sans-serif" font-size="14" lengthAdjust="spacingAndGlyphs" textLength="38" x="334.5" y="70.9951">Table</text>
        <rect fill="#FEFECE" height="30.2969" style="stroke: #A80036; stroke-width: 1.5;" width="53" x="407" y="51" /><text fill="#000000" font-family="sans-serif" font-size="14" lengthAdjust="spacingAndGlyphs" textLength="39" x="414" y="70.9951">Order</text>
        <rect fill="#FEFECE" height="30.2969" style="stroke: #A80036; stroke-width: 1.5;" width="49" x="518" y="51" /><text fill="#000000" font-family="sans-serif" font-size="14" lengthAdjust="spacingAndGlyphs" textLength="35" x="525" y="70.9951">Food</text>
        <line style="stroke: #A80036; stroke-width: 1.0;" x1="137.5" x2="127.5" y1="113.4297" y2="109.4297" />
        <line style="stroke: #A80036; stroke-width: 1.0;" x1="137.5" x2="127.5" y1="113.4297" y2="117.4297" />
        <line style="stroke: #A80036; stroke-width: 1.0;" x1="45" x2="138.5" y1="113.4297" y2="113.4297" /><text fill="#000000" font-family="sans-serif" font-size="13" lengthAdjust="spacingAndGlyphs" textLength="55" x="64.75" y="108.3638">navigate</text>
        <line style="stroke: #A80036; stroke-width: 1.0;" x1="267.5" x2="257.5" y1="142.5625" y2="138.5625" />
        <line style="stroke: #A80036; stroke-width: 1.0;" x1="267.5" x2="257.5" y1="142.5625" y2="146.5625" />
        <line style="stroke: #A80036; stroke-width: 1.0;" x1="139.5" x2="268.5" y1="142.5625" y2="142.5625" /><text fill="#000000" font-family="sans-serif" font-size="13" lengthAdjust="spacingAndGlyphs" textLength="95" x="157" y="137.4966">setReservation</text>
        <line style="stroke: #A80036; stroke-width: 1.0;" x1="351.5" x2="341.5" y1="171.6953" y2="167.6953" />
        <line style="stroke: #A80036; stroke-width: 1.0;" x1="351.5" x2="341.5" y1="171.6953" y2="175.6953" />
        <line style="stroke: #A80036; stroke-width: 1.0;" x1="269.5" x2="352.5" y1="171.6953" y2="171.6953" /><text fill="#000000" font-family="sans-serif" font-size="13" lengthAdjust="spacingAndGlyphs" textLength="54" x="284.5" y="166.6294">setTable</text>
        <line style="stroke: #A80036; stroke-width: 1.0;" x1="431.5" x2="421.5" y1="200.8281" y2="196.8281" />
        <line style="stroke: #A80036; stroke-width: 1.0;" x1="431.5" x2="421.5" y1="200.8281" y2="204.8281" />
        <line style="stroke: #A80036; stroke-width: 1.0;" x1="353.5" x2="432.5" y1="200.8281" y2="200.8281" /><text fill="#000000" font-family="sans-serif" font-size="13" lengthAdjust="spacingAndGlyphs" textLength="56" x="365.5" y="195.7622">setOrder</text>
        <line style="stroke: #A80036; stroke-width: 1.0;" x1="540.5" x2="530.5" y1="229.9609" y2="225.9609" />
        <line style="stroke: #A80036; stroke-width: 1.0;" x1="540.5" x2="530.5" y1="229.9609" y2="233.9609" />
        <line style="stroke: #A80036; stroke-width: 1.0;" x1="433.5" x2="541.5" y1="229.9609" y2="229.9609" /><text fill="#000000" font-family="sans-serif" font-size="13" lengthAdjust="spacingAndGlyphs" textLength="51" x="462.5" y="224.895">setFood</text>
        <polygon fill="#A80036" points="444.5,255.0938,434.5,259.0938,444.5,263.0938" style="stroke: #A80036; stroke-width: 1.0;" />
        <line style="stroke: #A80036; stroke-width: 1.0; stroke-dasharray: 2.0,2.0;" x1="438.5" x2="541.5" y1="259.0938" y2="259.0938" /><text fill="#000000" font-family="sans-serif" font-size="13" lengthAdjust="spacingAndGlyphs" textLength="85" x="445.5" y="254.0278">sendFoodinfo</text>
        <line style="stroke: #A80036; stroke-width: 1.0;" x1="269.5" x2="279.5" y1="288.2266" y2="284.2266" />
        <line style="stroke: #A80036; stroke-width: 1.0;" x1="269.5" x2="279.5" y1="288.2266" y2="292.2266" />
        <line style="stroke: #A80036; stroke-width: 1.0;" x1="269.5" x2="432.5" y1="288.2266" y2="288.2266" /><text fill="#000000" font-family="sans-serif" font-size="13" lengthAdjust="spacingAndGlyphs" textLength="92" x="305.5" y="283.1606">SendOrderInfo</text>
        <polygon fill="#A80036" points="150.5,313.3594,140.5,317.3594,150.5,321.3594" style="stroke: #A80036; stroke-width: 1.0;" />
        <line style="stroke: #A80036; stroke-width: 1.0; stroke-dasharray: 2.0,2.0;" x1="144.5" x2="268.5" y1="317.3594" y2="317.3594" /><text fill="#000000" font-family="sans-serif" font-size="13" lengthAdjust="spacingAndGlyphs" textLength="106" x="151.5" y="312.2935">requestPayment</text>
        <line style="stroke: #A80036; stroke-width: 1.0;" x1="267.5" x2="257.5" y1="346.4922" y2="342.4922" />
        <line style="stroke: #A80036; stroke-width: 1.0;" x1="267.5" x2="257.5" y1="346.4922" y2="350.4922" />
        <line style="stroke: #A80036; stroke-width: 1.0;" x1="139.5" x2="268.5" y1="346.4922" y2="346.4922" /><text fill="#000000" font-family="sans-serif" font-size="13" lengthAdjust="spacingAndGlyphs" textLength="93" x="158" y="341.4263">makePayment</text>
        <!--
@startuml

skinparam Style strictuml
skinparam SequenceMessageAlignment center

actor Customer as Cm

Cm ->> CustomerUI : navigate

CustomerUI ->> Reservation : setReservation

Reservation ->> Table : setTable

Table ->> Order : setOrder

Order ->> Food : setFood

Food - -> Order : sendFoodinfo

Order ->> Reservation :SendOrderInfo

Reservation - -> CustomerUI : requestPayment

CustomerUI ->> Reservation : makePayment
@enduml

PlantUML version 1.2018.13(Mon Nov 26 22:41:51 IST 2018)
(GPL source distribution)
Java Runtime: OpenJDK Runtime Environment
JVM: OpenJDK 64-Bit Server VM
Java Version: 11.0.8+10-post-Ubuntu-0ubuntu120.04
Operating System: Linux
OS Version: 5.4.0-47-generic
Default Encoding: UTF-8
Language: en
Country: IN
-->
    </g>
</svg>