<?xml version="1.0" encoding="UTF-8" standalone="no"?><svg xmlns="http://www.w3.org/2000/svg" xmlns:xlink="http://www.w3.org/1999/xlink" contentScriptType="application/ecmascript" contentStyleType="text/css" height="667px" preserveAspectRatio="none" style="width:618px;height:667px;" version="1.1" viewBox="0 0 618 667" width="618px" zoomAndPan="magnify">
    <defs />
    <g>
        <line style="stroke: #A80036; stroke-width: 1.0; stroke-dasharray: 5.0,5.0;" x1="26" x2="26" y1="82.2969" y2="655.8203" />
        <line style="stroke: #A80036; stroke-width: 1.0; stroke-dasharray: 5.0,5.0;" x1="107" x2="107" y1="82.2969" y2="655.8203" />
        <line style="stroke: #A80036; stroke-width: 1.0; stroke-dasharray: 5.0,5.0;" x1="248" x2="248" y1="82.2969" y2="655.8203" />
        <line style="stroke: #A80036; stroke-width: 1.0; stroke-dasharray: 5.0,5.0;" x1="360" x2="360" y1="82.2969" y2="655.8203" />
        <line style="stroke: #A80036; stroke-width: 1.0; stroke-dasharray: 5.0,5.0;" x1="473.5" x2="473.5" y1="82.2969" y2="655.8203" />
        <line style="stroke: #A80036; stroke-width: 1.0; stroke-dasharray: 5.0,5.0;" x1="582.5" x2="582.5" y1="82.2969" y2="655.8203" /><text fill="#000000" font-family="sans-serif" font-size="14" lengthAdjust="spacingAndGlyphs" textLength="30" x="8" y="78.9951">Staff</text>
        <ellipse cx="26" cy="13" fill="#FEFECE" rx="8" ry="8" style="stroke: #A80036; stroke-width: 2.0;" />
        <path d="M26,21 L26,48 M13,29 L39,29 M26,48 L13,63 M26,48 L39,63 " fill="none" style="stroke: #A80036; stroke-width: 2.0;" />
        <rect fill="#FEFECE" height="30.2969" style="stroke: #A80036; stroke-width: 1.5;" width="104" x="55" y="51" /><text fill="#000000" font-family="sans-serif" font-size="14" lengthAdjust="spacingAndGlyphs" textLength="90" x="62" y="70.9951">StaffInterface</text>
        <rect fill="#FEFECE" height="30.2969" style="stroke: #A80036; stroke-width: 1.5;" width="96" x="200" y="51" /><text fill="#000000" font-family="sans-serif" font-size="14" lengthAdjust="spacingAndGlyphs" textLength="82" x="207" y="70.9951">Reservation</text>
        <rect fill="#FEFECE" height="30.2969" style="stroke: #A80036; stroke-width: 1.5;" width="52" x="334" y="51" /><text fill="#000000" font-family="sans-serif" font-size="14" lengthAdjust="spacingAndGlyphs" textLength="38" x="341" y="70.9951">Table</text>
        <rect fill="#FEFECE" height="30.2969" style="stroke: #A80036; stroke-width: 1.5;" width="53" x="447.5" y="51" /><text fill="#000000" font-family="sans-serif" font-size="14" lengthAdjust="spacingAndGlyphs" textLength="39" x="454.5" y="70.9951">Order</text>
        <rect fill="#FEFECE" height="30.2969" style="stroke: #A80036; stroke-width: 1.5;" width="49" x="558.5" y="51" /><text fill="#000000" font-family="sans-serif" font-size="14" lengthAdjust="spacingAndGlyphs" textLength="35" x="565.5" y="70.9951">Food</text>
        <line style="stroke: #A80036; stroke-width: 1.0;" x1="105" x2="95" y1="113.4297" y2="109.4297" />
        <line style="stroke: #A80036; stroke-width: 1.0;" x1="105" x2="95" y1="113.4297" y2="117.4297" />
        <line style="stroke: #A80036; stroke-width: 1.0;" x1="26" x2="106" y1="113.4297" y2="113.4297" /><text fill="#000000" font-family="sans-serif" font-size="13" lengthAdjust="spacingAndGlyphs" textLength="57" x="38" y="108.3638">Navigate</text>
        <line style="stroke: #A80036; stroke-width: 1.0;" x1="246" x2="236" y1="142.5625" y2="138.5625" />
        <line style="stroke: #A80036; stroke-width: 1.0;" x1="246" x2="236" y1="142.5625" y2="146.5625" />
        <line style="stroke: #A80036; stroke-width: 1.0;" x1="107" x2="247" y1="142.5625" y2="142.5625" /><text fill="#000000" font-family="sans-serif" font-size="13" lengthAdjust="spacingAndGlyphs" textLength="95" x="130" y="137.4966">setReservation</text>
        <line style="stroke: #A80036; stroke-width: 1.0;" x1="358" x2="348" y1="171.6953" y2="167.6953" />
        <line style="stroke: #A80036; stroke-width: 1.0;" x1="358" x2="348" y1="171.6953" y2="175.6953" />
        <line style="stroke: #A80036; stroke-width: 1.0;" x1="248" x2="359" y1="171.6953" y2="171.6953" /><text fill="#000000" font-family="sans-serif" font-size="13" lengthAdjust="spacingAndGlyphs" textLength="54" x="277" y="166.6294">setTable</text>
        <line style="stroke: #A80036; stroke-width: 1.0;" x1="246" x2="236" y1="200.8281" y2="196.8281" />
        <line style="stroke: #A80036; stroke-width: 1.0;" x1="246" x2="236" y1="200.8281" y2="204.8281" />
        <line style="stroke: #A80036; stroke-width: 1.0;" x1="107" x2="247" y1="200.8281" y2="200.8281" /><text fill="#000000" font-family="sans-serif" font-size="13" lengthAdjust="spacingAndGlyphs" textLength="65" x="145" y="195.7622">setArrived</text>
        <line style="stroke: #A80036; stroke-width: 1.0;" x1="472" x2="462" y1="229.9609" y2="225.9609" />
        <line style="stroke: #A80036; stroke-width: 1.0;" x1="472" x2="462" y1="229.9609" y2="233.9609" />
        <line style="stroke: #A80036; stroke-width: 1.0;" x1="360" x2="473" y1="229.9609" y2="229.9609" /><text fill="#000000" font-family="sans-serif" font-size="13" lengthAdjust="spacingAndGlyphs" textLength="56" x="389" y="224.895">setOrder</text>
        <line style="stroke: #A80036; stroke-width: 1.0;" x1="581" x2="571" y1="259.0938" y2="255.0938" />
        <line style="stroke: #A80036; stroke-width: 1.0;" x1="581" x2="571" y1="259.0938" y2="263.0938" />
        <line style="stroke: #A80036; stroke-width: 1.0;" x1="474" x2="582" y1="259.0938" y2="259.0938" /><text fill="#000000" font-family="sans-serif" font-size="13" lengthAdjust="spacingAndGlyphs" textLength="51" x="503" y="254.0278">setFood</text>
        <polygon fill="#A80036" points="485,284.2266,475,288.2266,485,292.2266" style="stroke: #A80036; stroke-width: 1.0;" />
        <line style="stroke: #A80036; stroke-width: 1.0; stroke-dasharray: 2.0,2.0;" x1="479" x2="582" y1="288.2266" y2="288.2266" /><text fill="#000000" font-family="sans-serif" font-size="13" lengthAdjust="spacingAndGlyphs" textLength="85" x="486" y="283.1606">sendFoodinfo</text>
        <polygon fill="#A80036" points="371,313.3594,361,317.3594,371,321.3594" style="stroke: #A80036; stroke-width: 1.0;" />
        <line style="stroke: #A80036; stroke-width: 1.0; stroke-dasharray: 2.0,2.0;" x1="365" x2="473" y1="317.3594" y2="317.3594" /><text fill="#000000" font-family="sans-serif" font-size="13" lengthAdjust="spacingAndGlyphs" textLength="90" x="372" y="312.2935">sendOrderInfo</text>
        <polygon fill="#A80036" points="259,342.4922,249,346.4922,259,350.4922" style="stroke: #A80036; stroke-width: 1.0;" />
        <line style="stroke: #A80036; stroke-width: 1.0; stroke-dasharray: 2.0,2.0;" x1="253" x2="359" y1="346.4922" y2="346.4922" /><text fill="#000000" font-family="sans-serif" font-size="13" lengthAdjust="spacingAndGlyphs" textLength="88" x="260" y="341.4263">sendTableInfo</text>
        <line style="stroke: #A80036; stroke-width: 1.0;" x1="581" x2="571" y1="375.625" y2="371.625" />
        <line style="stroke: #A80036; stroke-width: 1.0;" x1="581" x2="571" y1="375.625" y2="379.625" />
        <line style="stroke: #A80036; stroke-width: 1.0;" x1="107" x2="582" y1="375.625" y2="375.625" /><text fill="#000000" font-family="sans-serif" font-size="13" lengthAdjust="spacingAndGlyphs" textLength="68" x="311" y="370.5591">setCooked</text>
        <polygon fill="#A80036" points="118,400.7578,108,404.7578,118,408.7578" style="stroke: #A80036; stroke-width: 1.0;" />
        <line style="stroke: #A80036; stroke-width: 1.0; stroke-dasharray: 2.0,2.0;" x1="112" x2="582" y1="404.7578" y2="404.7578" /><text fill="#000000" font-family="sans-serif" font-size="13" lengthAdjust="spacingAndGlyphs" textLength="96" x="297" y="399.6919">notify Copleted</text>
        <line style="stroke: #A80036; stroke-width: 1.0;" x1="581" x2="571" y1="433.8906" y2="429.8906" />
        <line style="stroke: #A80036; stroke-width: 1.0;" x1="581" x2="571" y1="433.8906" y2="437.8906" />
        <line style="stroke: #A80036; stroke-width: 1.0;" x1="107" x2="582" y1="433.8906" y2="433.8906" /><text fill="#000000" font-family="sans-serif" font-size="13" lengthAdjust="spacingAndGlyphs" textLength="79" x="305.5" y="428.8247">setCollected</text>
        <line style="stroke: #A80036; stroke-width: 1.0;" x1="358" x2="348" y1="463.0234" y2="459.0234" />
        <line style="stroke: #A80036; stroke-width: 1.0;" x1="358" x2="348" y1="463.0234" y2="467.0234" />
        <line style="stroke: #A80036; stroke-width: 1.0;" x1="107" x2="359" y1="463.0234" y2="463.0234" /><text fill="#000000" font-family="sans-serif" font-size="13" lengthAdjust="spacingAndGlyphs" textLength="84" x="191.5" y="457.9575">Deliver Order</text>
        <line style="stroke: #A80036; stroke-width: 1.0;" x1="246" x2="236" y1="492.1563" y2="488.1563" />
        <line style="stroke: #A80036; stroke-width: 1.0;" x1="246" x2="236" y1="492.1563" y2="496.1563" />
        <line style="stroke: #A80036; stroke-width: 1.0;" x1="107" x2="247" y1="492.1563" y2="492.1563" /><text fill="#000000" font-family="sans-serif" font-size="13" lengthAdjust="spacingAndGlyphs" textLength="86" x="134.5" y="487.0903">Set Delivered</text>
        <polygon fill="#A80036" points="118,517.2891,108,521.2891,118,525.2891" style="stroke: #A80036; stroke-width: 1.0;" />
        <line style="stroke: #A80036; stroke-width: 1.0; stroke-dasharray: 2.0,2.0;" x1="112" x2="247" y1="521.2891" y2="521.2891" /><text fill="#000000" font-family="sans-serif" font-size="13" lengthAdjust="spacingAndGlyphs" textLength="109" x="123" y="516.2231">RequestPayment</text>
        <line style="stroke: #A80036; stroke-width: 1.0;" x1="246" x2="236" y1="550.4219" y2="546.4219" />
        <line style="stroke: #A80036; stroke-width: 1.0;" x1="246" x2="236" y1="550.4219" y2="554.4219" />
        <line style="stroke: #A80036; stroke-width: 1.0;" x1="107" x2="247" y1="550.4219" y2="550.4219" /><text fill="#000000" font-family="sans-serif" font-size="13" lengthAdjust="spacingAndGlyphs" textLength="117" x="119" y="545.356">Add Payment Info</text>
        <polygon fill="#A80036" points="118,575.5547,108,579.5547,118,583.5547" style="stroke: #A80036; stroke-width: 1.0;" />
        <line style="stroke: #A80036; stroke-width: 1.0; stroke-dasharray: 2.0,2.0;" x1="112" x2="247" y1="579.5547" y2="579.5547" /><text fill="#000000" font-family="sans-serif" font-size="13" lengthAdjust="spacingAndGlyphs" textLength="111" x="122" y="574.4888">Confirm Payment</text>
        <line style="stroke: #A80036; stroke-width: 1.0;" x1="358" x2="348" y1="608.6875" y2="604.6875" />
        <line style="stroke: #A80036; stroke-width: 1.0;" x1="358" x2="348" y1="608.6875" y2="612.6875" />
        <line style="stroke: #A80036; stroke-width: 1.0;" x1="107" x2="359" y1="608.6875" y2="608.6875" /><text fill="#000000" font-family="sans-serif" font-size="13" lengthAdjust="spacingAndGlyphs" textLength="74" x="196.5" y="603.6216">Clean Table</text>
        <line style="stroke: #A80036; stroke-width: 1.0;" x1="246" x2="236" y1="637.8203" y2="633.8203" />
        <line style="stroke: #A80036; stroke-width: 1.0;" x1="246" x2="236" y1="637.8203" y2="641.8203" />
        <line style="stroke: #A80036; stroke-width: 1.0;" x1="107" x2="247" y1="637.8203" y2="637.8203" /><text fill="#000000" font-family="sans-serif" font-size="13" lengthAdjust="spacingAndGlyphs" textLength="73" x="141" y="632.7544">TableReady</text>
        <!--
@startuml

skinparam Style strictuml
skinparam SequenceMessageAlignment center

Actor Staff as st

st ->> StaffInterface : Navigate

StaffInterface ->> Reservation : setReservation

Reservation ->> Table : setTable

StaffInterface ->> Reservation: setArrived

Table ->> Order : setOrder

Order ->> Food : setFood

Food - -> Order : sendFoodinfo

Order - -> Table : sendOrderInfo

Table - -> Reservation : sendTableInfo

StaffInterface ->> Food : setCooked

Food - -> StaffInterface : notify Copleted

StaffInterface ->> Food : setCollected

StaffInterface ->> Table : Deliver Order

StaffInterface ->> Reservation : Set Delivered


Reservation - -> StaffInterface : RequestPayment

StaffInterface ->> Reservation : Add Payment  Info

Reservation - -> StaffInterface : Confirm Payment

StaffInterface ->> Table :Clean Table

StaffInterface ->> Reservation : TableReady

@enduml

PlantUML version 1.2018.13(Mon Nov 26 22:41:51 IST 2018)
(GPL source distribution)
Java Runtime: OpenJDK Runtime Environment
JVM: OpenJDK 64-Bit Server VM
Java Version: 11.0.8+10-post-Ubuntu-0ubuntu120.04
Operating System: Linux
OS Version: 5.4.0-47-generic
Default Encoding: UTF-8
Language: en
Country: IN
-->
    </g>
</svg>