<?xml version="1.0" encoding="UTF-8" standalone="no"?><svg xmlns="http://www.w3.org/2000/svg" xmlns:xlink="http://www.w3.org/1999/xlink" contentScriptType="application/ecmascript" contentStyleType="text/css" height="1067px" preserveAspectRatio="none" style="width:1526px;height:1067px;" version="1.1" viewBox="0 0 1526 1067" width="1526px" zoomAndPan="magnify">
    <defs />
    <g>
        <!--cluster Resturant-->
        <rect fill="#FFFFFF" height="743" style="stroke: #000000; stroke-width: 1.5;" width="1318" x="197" y="216.5" /><text fill="#000000" font-family="sans-serif" font-size="14" font-weight="bold" lengthAdjust="spacingAndGlyphs" textLength="77" x="817.5" y="231.4951">Resturant</text>
        <ellipse cx="329.9259" cy="655.2852" fill="#FEFECE" rx="84.4259" ry="19.2852" style="stroke: #A80036; stroke-width: 1.5;" /><text fill="#000000" font-family="sans-serif" font-size="14" lengthAdjust="spacingAndGlyphs" textLength="141" x="259.4259" y="659.9336">Manage Reservation</text>
        <ellipse cx="330.2254" cy="747.7451" fill="#FEFECE" rx="66.7254" ry="15.7451" style="stroke: #A80036; stroke-width: 1.5;" /><text fill="#000000" font-family="sans-serif" font-size="14" lengthAdjust="spacingAndGlyphs" textLength="98" x="281.2254" y="752.3935">Manage Order</text>
        <ellipse cx="673.8859" cy="429.4772" fill="#FEFECE" rx="67.8859" ry="15.9772" style="stroke: #A80036; stroke-width: 1.5;" /><text fill="#000000" font-family="sans-serif" font-size="14" lengthAdjust="spacingAndGlyphs" textLength="101" x="623.3859" y="434.1256">Update Orders</text>
        <ellipse cx="674.2133" cy="655.3427" fill="#FEFECE" rx="79.7133" ry="18.3427" style="stroke: #A80036; stroke-width: 1.5;" /><text fill="#000000" font-family="sans-serif" font-size="14" lengthAdjust="spacingAndGlyphs" textLength="130" x="609.2133" y="659.9911">Make a reservation</text>
        <ellipse cx="674.2005" cy="499.4401" fill="#FEFECE" rx="82.7005" ry="18.9401" style="stroke: #A80036; stroke-width: 1.5;" /><text fill="#000000" font-family="sans-serif" font-size="14" lengthAdjust="spacingAndGlyphs" textLength="137" x="605.7005" y="504.0885">Modify a reservation</text>
        <ellipse cx="330.228" cy="923.5456" fill="#FEFECE" rx="85.728" ry="19.5456" style="stroke: #A80036; stroke-width: 1.5;" /><text fill="#000000" font-family="sans-serif" font-size="14" lengthAdjust="spacingAndGlyphs" textLength="144" x="258.228" y="928.194">Update Reservations</text>
        <ellipse cx="330.2005" cy="849.4401" fill="#FEFECE" rx="82.7005" ry="18.9401" style="stroke: #A80036; stroke-width: 1.5;" /><text fill="#000000" font-family="sans-serif" font-size="14" lengthAdjust="spacingAndGlyphs" textLength="137" x="261.7005" y="854.0885">Modify a reservation</text>
        <ellipse cx="673.8339" cy="861.5668" fill="#FEFECE" rx="63.3339" ry="15.0668" style="stroke: #A80036; stroke-width: 1.5;" /><text fill="#000000" font-family="sans-serif" font-size="14" lengthAdjust="spacingAndGlyphs" textLength="89" x="629.3339" y="866.2152">Change Seat</text>
        <ellipse cx="673.8417" cy="927.6683" fill="#FEFECE" rx="66.3417" ry="15.6683" style="stroke: #A80036; stroke-width: 1.5;" /><text fill="#000000" font-family="sans-serif" font-size="14" lengthAdjust="spacingAndGlyphs" textLength="97" x="625.3417" y="932.3168">Change Order</text>
        <ellipse cx="1046.0624" cy="537.5125" fill="#FEFECE" rx="80.5624" ry="18.5125" style="stroke: #A80036; stroke-width: 1.5;" /><text fill="#000000" font-family="sans-serif" font-size="14" lengthAdjust="spacingAndGlyphs" textLength="132" x="980.0624" y="542.1609">Delete Reservation</text>
        <ellipse cx="1045.8371" cy="461.6674" fill="#FEFECE" rx="101.3371" ry="22.6674" style="stroke: #A80036; stroke-width: 1.5;" /><text fill="#000000" font-family="sans-serif" font-size="14" lengthAdjust="spacingAndGlyphs" textLength="179" x="956.3371" y="466.3158">Display too late to change</text>
        <ellipse cx="1045.7756" cy="698.5236" fill="#FEFECE" rx="60.2756" ry="14.5236" style="stroke: #A80036; stroke-width: 1.5;" /><text fill="#000000" font-family="sans-serif" font-size="14" lengthAdjust="spacingAndGlyphs" textLength="81" x="1005.2756" y="703.1721">Select table</text>
        <ellipse cx="1403.4604" cy="704.4921" fill="#FEFECE" rx="95.4604" ry="21.4921" style="stroke: #A80036; stroke-width: 1.5;" /><text fill="#000000" font-family="sans-serif" font-size="14" lengthAdjust="spacingAndGlyphs" textLength="166" x="1320.4604" y="709.1405">Enter name and contact</text>
        <ellipse cx="1046.0143" cy="630.7029" fill="#FEFECE" rx="61.5143" ry="14.7029" style="stroke: #A80036; stroke-width: 1.5;" /><text fill="#000000" font-family="sans-serif" font-size="14" lengthAdjust="spacingAndGlyphs" textLength="84" x="1004.0143" y="635.3513">Select order</text>
        <ellipse cx="1403.5794" cy="562.5159" fill="#FEFECE" rx="65.5794" ry="15.5159" style="stroke: #A80036; stroke-width: 1.5;" /><text fill="#000000" font-family="sans-serif" font-size="14" lengthAdjust="spacingAndGlyphs" textLength="95" x="1356.0794" y="567.1643">Browse Menu</text>
        <ellipse cx="1403.2526" cy="630.3505" fill="#FEFECE" rx="72.2526" ry="16.8505" style="stroke: #A80036; stroke-width: 1.5;" /><text fill="#000000" font-family="sans-serif" font-size="14" lengthAdjust="spacingAndGlyphs" textLength="112" x="1347.2526" y="634.999">Special Request</text>
        <ellipse cx="674.1307" cy="792.5261" fill="#FEFECE" rx="83.1307" ry="19.0261" style="stroke: #A80036; stroke-width: 1.5;" /><text fill="#000000" font-family="sans-serif" font-size="14" lengthAdjust="spacingAndGlyphs" textLength="138" x="605.1307" y="797.1746">Mark Order as Done</text>
        <ellipse cx="674.1565" cy="723.6313" fill="#FEFECE" rx="61.1565" ry="14.6313" style="stroke: #A80036; stroke-width: 1.5;" /><text fill="#000000" font-family="sans-serif" font-size="14" lengthAdjust="spacingAndGlyphs" textLength="83" x="632.6565" y="728.2797">View Orders</text>
        <ellipse cx="673.8859" cy="569.4772" fill="#FEFECE" rx="67.8859" ry="15.9772" style="stroke: #A80036; stroke-width: 1.5;" /><text fill="#000000" font-family="sans-serif" font-size="14" lengthAdjust="spacingAndGlyphs" textLength="101" x="623.3859" y="574.1256">Make Payment</text>
        <ellipse cx="330.0271" cy="352.3054" fill="#FEFECE" rx="117.0271" ry="25.8054" style="stroke: #A80036; stroke-width: 1.5;" /><text fill="#000000" font-family="sans-serif" font-size="14" lengthAdjust="spacingAndGlyphs" textLength="213" x="223.5271" y="356.9539">Manage Customer Reservation</text>
        <ellipse cx="674.0751" cy="355.715" fill="#FEFECE" rx="104.0751" ry="23.215" style="stroke: #A80036; stroke-width: 1.5;" /><text fill="#000000" font-family="sans-serif" font-size="14" lengthAdjust="spacingAndGlyphs" textLength="185" x="581.5751" y="360.3635">View Customer Reservaion</text>
        <ellipse cx="674.0203" cy="274.3041" fill="#FEFECE" rx="99.5203" ry="22.3041" style="stroke: #A80036; stroke-width: 1.5;" /><text fill="#000000" font-family="sans-serif" font-size="14" lengthAdjust="spacingAndGlyphs" textLength="175" x="586.5203" y="278.9525">Mark Customer as arrived</text>
        <ellipse cx="1045.7578" cy="281.6516" fill="#FEFECE" rx="138.7578" ry="30.1516" style="stroke: #A80036; stroke-width: 1.5;" /><text fill="#000000" font-family="sans-serif" font-size="14" lengthAdjust="spacingAndGlyphs" textLength="259" x="916.2578" y="286.3">Add Customer Info to Order Database</text>
        <ellipse cx="329.7712" cy="272.3542" fill="#FEFECE" rx="82.2712" ry="18.8542" style="stroke: #A80036; stroke-width: 1.5;" /><text fill="#000000" font-family="sans-serif" font-size="14" lengthAdjust="spacingAndGlyphs" textLength="136" x="261.7712" y="277.0027">Update Reservation</text>
        <!--entity Customer-->
        <ellipse cx="47" cy="615" fill="#FEFECE" rx="8" ry="8" style="stroke: #A80036; stroke-width: 2.0;" />
        <path d="M47,623 L47,650 M34,631 L60,631 M47,650 L34,665 M47,650 L60,665 " fill="none" style="stroke: #A80036; stroke-width: 2.0;" /><text fill="#000000" font-family="sans-serif" font-size="14" lengthAdjust="spacingAndGlyphs" textLength="68" x="13" y="680.9951">Customer</text>
        <!--entity KitchenStaff-->
        <ellipse cx="47" cy="729" fill="#FEFECE" rx="8" ry="8" style="stroke: #A80036; stroke-width: 2.0;" />
        <path d="M47,737 L47,764 M34,745 L60,745 M47,764 L34,779 M47,764 L60,779 " fill="none" style="stroke: #A80036; stroke-width: 2.0;" /><text fill="#000000" font-family="sans-serif" font-size="14" lengthAdjust="spacingAndGlyphs" textLength="82" x="6" y="794.9951">KitchenStaff</text>
        <!--entity OrderDatabase-->
        <ellipse cx="330" cy="18" fill="#FEFECE" rx="8" ry="8" style="stroke: #A80036; stroke-width: 2.0;" />
        <path d="M330,26 L330,53 M317,34 L343,34 M330,53 L317,68 M330,53 L343,68 " fill="none" style="stroke: #A80036; stroke-width: 2.0;" /><text fill="#000000" font-family="sans-serif" font-size="14" lengthAdjust="spacingAndGlyphs" textLength="105" x="277.5" y="83.9951">OrderDatabase</text>
        <!--entity Waiter-->
        <ellipse cx="330" cy="132" fill="#FEFECE" rx="8" ry="8" style="stroke: #A80036; stroke-width: 2.0;" />
        <path d="M330,140 L330,167 M317,148 L343,148 M330,167 L317,182 M330,167 L343,182 " fill="none" style="stroke: #A80036; stroke-width: 2.0;" /><text fill="#000000" font-family="sans-serif" font-size="14" lengthAdjust="spacingAndGlyphs" textLength="43" x="308.5" y="197.9951">Waiter</text>
        <!--entity ReservationDatabase-->
        <ellipse cx="674" cy="988" fill="#FEFECE" rx="8" ry="8" style="stroke: #A80036; stroke-width: 2.0;" />
        <path d="M674,996 L674,1023 M661,1004 L687,1004 M674,1023 L661,1038 M674,1023 L687,1038 " fill="none" style="stroke: #A80036; stroke-width: 2.0;" /><text fill="#000000" font-family="sans-serif" font-size="14" lengthAdjust="spacingAndGlyphs" textLength="148" x="600" y="1053.9951">ReservationDatabase</text>
        <!--link Customer to Manage Reservation-->
        <path d="M81.06,645.79 C121.46,647.38 191.27,650.11 246.54,652.27 " fill="none" id="Customer-Manage Reservation" style="stroke: #A80036; stroke-width: 1.0;" />
        <!--link KitchenStaff to Manage Order-->
        <path d="M88.26,756.92 C134.17,755.13 209.86,752.16 264.12,750.04 " fill="none" id="KitchenStaff-Manage Order" style="stroke: #A80036; stroke-width: 1.0;" />
        <!--link OrderDatabase to Update Orders-->
        <path d="M382.58,65.71 C404.11,75.03 428.39,87.95 447,104.5 C503.92,155.14 511.22,177.96 540,248.5 C565.19,310.24 525.7,345.66 570,395.5 C581.57,408.52 598.23,416.57 614.79,421.54 " fill="none" id="OrderDatabase-Update Orders" style="stroke: #A80036; stroke-width: 1.0;" />
        <!--link Manage Reservation to Make a reservation-->
        <path d="M434.88,655.5 C486.14,655.5 546.96,655.5 594.31,655.5 " fill="none" id="Manage Reservation-Make a reservation" style="stroke: #A80036; stroke-width: 1.0;" />
        <polygon fill="none" points="434.66,662.5,414.66,655.5,434.66,648.5,434.66,662.5" style="stroke: #A80036; stroke-width: 1.0;" />
        <!--link Manage Reservation to Modify a reservation-->
        <path d="M381.47,627.77 C429.23,602.09 503.35,563.74 570,535.5 C587.7,528 607.56,520.79 625.08,514.81 " fill="none" id="Manage Reservation-Modify a reservation" style="stroke: #A80036; stroke-width: 1.0;" />
        <polygon fill="none" points="384.54,634.06,363.62,637.43,377.87,621.75,384.54,634.06" style="stroke: #A80036; stroke-width: 1.0;" />
        <!--link Manage Reservation to Update Reservations-->
        <path d="M267.95,668.92 C240.47,677.73 209.75,691.94 189,714.5 C120.33,789.17 135,802.99 152,846 C167.18,884.4 208.59,903.79 247.65,913.58 " fill="none" id="Manage Reservation-Update Reservations" style="stroke: #A80036; stroke-width: 1.0; stroke-dasharray: 7.0,7.0;" />
        <polygon fill="#A80036" points="252.89,914.84,245.0787,908.8414,248.0294,913.6677,243.203,916.6184,252.89,914.84" style="stroke: #A80036; stroke-width: 1.0;" /><text fill="#000000" font-family="sans-serif" font-size="13" lengthAdjust="spacingAndGlyphs" textLength="61" x="119" y="842.0669">«include»</text>
        <!--link Update Reservations to ReservationDatabase-->
        <path d="M385.19,938.39 C443.2,954.34 535.57,979.73 599.97,997.43 " fill="none" id="Update Reservations-ReservationDatabase" style="stroke: #A80036; stroke-width: 1.0;" />
        <!--link Modify a reservation  to Change Seat-->
        <path d="M411.62,852.33 C470.73,854.4 550.07,857.19 605.78,859.14 " fill="none" id="Modify a reservation -Change Seat" style="stroke: #A80036; stroke-width: 1.0; stroke-dasharray: 7.0,7.0;" />
        <polygon fill="#A80036" points="611.09,859.33,602.2447,854.9987,606.0934,859.1444,601.9477,862.9932,611.09,859.33" style="stroke: #A80036; stroke-width: 1.0;" /><text fill="#000000" font-family="sans-serif" font-size="13" lengthAdjust="spacingAndGlyphs" textLength="61" x="478" y="851.5669">«include»</text>
        <!--link Modify a reservation  to Change Order-->
        <path d="M389.4,862.82 C454.35,877.63 558.31,901.34 620.69,915.57 " fill="none" id="Modify a reservation -Change Order" style="stroke: #A80036; stroke-width: 1.0; stroke-dasharray: 7.0,7.0;" />
        <polygon fill="#A80036" points="625.85,916.75,617.9685,910.8439,620.9759,915.6351,616.1847,918.6425,625.85,916.75" style="stroke: #A80036; stroke-width: 1.0;" /><text fill="#000000" font-family="sans-serif" font-size="13" lengthAdjust="spacingAndGlyphs" textLength="61" x="478" y="880.5669">«include»</text>
        <!--link Modify a reservation to Delete Reservation-->
        <path d="M731.96,513.07 C755.39,518.12 782.86,523.38 808,526.5 C858.28,532.73 914.96,535.52 960.28,536.73 " fill="none" id="Modify a reservation-Delete Reservation" style="stroke: #A80036; stroke-width: 1.0; stroke-dasharray: 7.0,7.0;" />
        <polygon fill="#A80036" points="965.47,536.86,956.5758,532.63,960.4717,536.7315,956.3702,540.6273,965.47,536.86" style="stroke: #A80036; stroke-width: 1.0;" /><text fill="#000000" font-family="sans-serif" font-size="13" lengthAdjust="spacingAndGlyphs" textLength="61" x="812" y="522.5669">«include»</text>
        <!--link Modify a reservation to Display too late to change-->
        <path d="M755.1,491.27 C813.48,485.28 892.67,477.14 953.54,470.89 " fill="none" id="Modify a reservation-Display too late to change" style="stroke: #A80036; stroke-width: 1.0; stroke-dasharray: 7.0,7.0;" />
        <polygon fill="#A80036" points="749.88,491.81,759.2438,494.8627,754.8535,491.2955,758.4206,486.9051,749.88,491.81" style="stroke: #A80036; stroke-width: 1.0;" /><text fill="#000000" font-family="sans-serif" font-size="13" lengthAdjust="spacingAndGlyphs" textLength="67" x="809" y="475.5669">«extends»</text>
        <!--link Make a reservation to Select table-->
        <path d="M744.71,663.97 C765.1,666.43 787.44,669.09 808,671.5 C868.52,678.59 937.76,686.45 985.71,691.85 " fill="none" id="Make a reservation-Select table" style="stroke: #A80036; stroke-width: 1.0; stroke-dasharray: 7.0,7.0;" />
        <polygon fill="#A80036" points="990.87,692.43,982.3715,687.4525,985.9011,691.8731,981.4805,695.4028,990.87,692.43" style="stroke: #A80036; stroke-width: 1.0;" /><text fill="#000000" font-family="sans-serif" font-size="13" lengthAdjust="spacingAndGlyphs" textLength="61" x="812" y="667.5669">«include»</text>
        <!--link Select table to Enter name and contact-->
        <path d="M1106.5,699.5 C1159.95,700.41 1239.5,701.75 1302.68,702.82 " fill="none" id="Select table-Enter name and contact" style="stroke: #A80036; stroke-width: 1.0; stroke-dasharray: 7.0,7.0;" />
        <polygon fill="#A80036" points="1307.97,702.9,1299.0399,698.7463,1302.9707,702.8143,1298.9028,706.7451,1307.97,702.9" style="stroke: #A80036; stroke-width: 1.0;" /><text fill="#000000" font-family="sans-serif" font-size="13" lengthAdjust="spacingAndGlyphs" textLength="61" x="1216" y="697.5669">«include»</text>
        <!--link Make a reservation to Select order-->
        <path d="M750.77,650.38 C818.73,645.79 917.34,639.13 981.32,634.8 " fill="none" id="Make a reservation-Select order" style="stroke: #A80036; stroke-width: 1.0; stroke-dasharray: 7.0,7.0;" />
        <polygon fill="#A80036" points="986.63,634.44,977.3871,631.0388,981.6408,634.7679,977.9117,639.0215,986.63,634.44" style="stroke: #A80036; stroke-width: 1.0;" /><text fill="#000000" font-family="sans-serif" font-size="13" lengthAdjust="spacingAndGlyphs" textLength="61" x="812" y="638.5669">«include»</text>
        <!--link Select order to Browse Menu-->
        <path d="M1094.21,621.47 C1159.59,608.96 1277.5,586.41 1347.02,573.11 " fill="none" id="Select order-Browse Menu" style="stroke: #A80036; stroke-width: 1.0; stroke-dasharray: 7.0,7.0;" />
        <polygon fill="#A80036" points="1351.94,572.17,1342.3538,569.9106,1347.0269,573.0983,1343.8392,577.7715,1351.94,572.17" style="stroke: #A80036; stroke-width: 1.0;" /><text fill="#000000" font-family="sans-serif" font-size="13" lengthAdjust="spacingAndGlyphs" textLength="61" x="1216" y="582.5669">«include»</text>
        <!--link Select order to Special Request-->
        <path d="M1107.71,630.5 C1167.91,630.5 1260.37,630.5 1325.66,630.5 " fill="none" id="Select order-Special Request" style="stroke: #A80036; stroke-width: 1.0; stroke-dasharray: 7.0,7.0;" />
        <polygon fill="#A80036" points="1330.71,630.5,1321.71,626.5,1325.71,630.5,1321.71,634.5,1330.71,630.5" style="stroke: #A80036; stroke-width: 1.0;" /><text fill="#000000" font-family="sans-serif" font-size="13" lengthAdjust="spacingAndGlyphs" textLength="61" x="1216" y="626.5669">«include»</text>
        <!--link Manage Order to Mark Order as Done-->
        <path d="M408.2,757.66 C466.21,765.29 545.06,775.67 601.61,783.11 " fill="none" id="Manage Order-Mark Order as Done" style="stroke: #A80036; stroke-width: 1.0;" />
        <polygon fill="none" points="407.16,764.58,388.24,755.03,408.99,750.7,407.16,764.58" style="stroke: #A80036; stroke-width: 1.0;" />
        <!--link Manage Order to View Orders-->
        <path d="M415.54,743.27 C453.6,741.21 499.08,738.52 540,735.5 C565.43,733.62 593.57,731.14 617.38,728.93 " fill="none" id="Manage Order-View Orders" style="stroke: #A80036; stroke-width: 1.0;" />
        <polygon fill="none" points="415.87,750.27,395.53,744.34,415.13,736.29,415.87,750.27" style="stroke: #A80036; stroke-width: 1.0;" />
        <!--link Manage Order to Update Orders-->
        <path d="M371.84,735.37 C395.98,726.57 425.86,712.64 447,692.5 C530.93,612.54 480.96,536.72 570,462.5 C582.31,452.24 597.86,445.15 613.12,440.26 " fill="none" id="Manage Order-Update Orders" style="stroke: #A80036; stroke-width: 1.0; stroke-dasharray: 7.0,7.0;" />
        <polygon fill="#A80036" points="618.28,438.69,608.5051,437.4849,613.4968,440.1464,610.8353,445.138,618.28,438.69" style="stroke: #A80036; stroke-width: 1.0;" /><text fill="#000000" font-family="sans-serif" font-size="13" lengthAdjust="spacingAndGlyphs" textLength="61" x="478" y="494.5669">«include»</text>
        <!--link Make a reservation to Make Payment-->
        <path d="M674,636.84 C674,623.2 674,604.69 674,590.53 " fill="none" id="Make a reservation-Make Payment" style="stroke: #A80036; stroke-width: 1.0; stroke-dasharray: 7.0,7.0;" />
        <polygon fill="#A80036" points="674,585.52,670,594.52,674,590.52,678,594.52,674,585.52" style="stroke: #A80036; stroke-width: 1.0;" /><text fill="#000000" font-family="sans-serif" font-size="13" lengthAdjust="spacingAndGlyphs" textLength="61" x="632" y="615.8169">«include»</text>
        <!--link Manage Customer Reservation to Waiter-->
        <path d="M221.87,342.46 C189.73,333.79 157.94,318.31 138.5,291 C89.86,222.66 248.28,179.59 308.09,166.08 " fill="none" id="Manage Customer Reservation-Waiter" style="stroke: #A80036; stroke-width: 1.0;" />
        <!--link Manage Customer Reservation to View Customer Reservaion-->
        <path d="M467.64,353.7 C501.75,354 537.77,354.31 569.95,354.6 " fill="none" id="Manage Customer Reservation-View Customer Reservaion" style="stroke: #A80036; stroke-width: 1.0;" />
        <polygon fill="none" points="467.2,360.7,447.26,353.52,467.32,346.7,467.2,360.7" style="stroke: #A80036; stroke-width: 1.0;" />
        <!--link Manage Customer Reservation to Mark Customer as arrived-->
        <path d="M432.21,329.42 C487.34,316.84 554.16,301.6 603.4,290.37 " fill="none" id="Manage Customer Reservation-Mark Customer as arrived" style="stroke: #A80036; stroke-width: 1.0;" />
        <polygon fill="none" points="433.54,336.29,412.48,333.92,430.43,322.64,433.54,336.29" style="stroke: #A80036; stroke-width: 1.0;" />
        <!--link Mark Customer as arrived to Add Customer Info to Order Database-->
        <path d="M773.18,276.36 C812.68,277.1 859.01,277.98 902.12,278.8 " fill="none" id="Mark Customer as arrived-Add Customer Info to Order Database" style="stroke: #A80036; stroke-width: 1.0; stroke-dasharray: 7.0,7.0;" />
        <polygon fill="#A80036" points="907.36,278.9,898.4418,274.7208,902.361,278.8,898.2818,282.7192,907.36,278.9" style="stroke: #A80036; stroke-width: 1.0;" /><text fill="#000000" font-family="sans-serif" font-size="13" lengthAdjust="spacingAndGlyphs" textLength="61" x="812" y="273.5669">«include»</text>
        <!--link OrderDatabase to Add Customer Info to Order Database-->
        <path d="M382.64,64.42 C506.84,105.13 822.81,208.68 968.85,256.54 " fill="none" id="OrderDatabase-Add Customer Info to Order Database" style="stroke: #A80036; stroke-width: 1.0;" />
        <!--link Update Reservation to Mark Customer as arrived-->
        <path d="M417.66,273.01 C465.43,273.29 524.93,273.63 574.47,273.92 " fill="none" id="Update Reservation-Mark Customer as arrived" style="stroke: #A80036; stroke-width: 1.0; stroke-dasharray: 7.0,7.0;" />
        <polygon fill="#A80036" points="412.48,272.98,421.457,277.0314,417.4799,273.0086,421.5027,269.0315,412.48,272.98" style="stroke: #A80036; stroke-width: 1.0;" /><text fill="#000000" font-family="sans-serif" font-size="13" lengthAdjust="spacingAndGlyphs" textLength="61" x="478" y="269.5669">«include»</text>
        <!--
@startuml usecase

Skinparam Style strictuml
left to right direction
Skinparam PackageStyle rectangle

actor Customer

actor KitchenStaff

actor OrderDatabase

actor Waiter

actor ReservationDatabase

rectangle Resturant{
   Customer - - (Manage Reservation)
   KitchenStaff - - (Manage Order)
   OrderDatabase - - (Update Orders)
   (Manage Reservation) <|-down- (Make a reservation)
   (Manage Reservation) <|-down- (Modify a reservation)
   (Manage Reservation) .> (Update Reservations) : <<include>>
   (Update Reservations) - - ReservationDatabase
   (Modify a reservation ) .down.> (Change Seat) : <<include>>
   (Modify a reservation ) .down.> (Change Order) : <<include>>
   (Modify a reservation) .down.> (Delete Reservation) : <<include>>
   (Modify a reservation) <.. (Display too late to change) : <<extends>>
   (Make a reservation) .down.> (Select table) : <<include>>
   (Select table) .down.> (Enter name and contact) : <<include>>
   (Make a reservation) .down.> (Select order) : <<include>>
   (Select order) .down.> (Browse Menu): <<include>>
   (Select order) .down.> (Special Request): <<include>>
   (Manage Order) <|- - (Mark Order as Done)
   (Manage Order) <|- - (View Orders)
   (Manage Order) .down.> (Update Orders): <<include>>
   (Make a reservation) .> (Make Payment) : <<include>>
   Waiter -left- (Manage Customer Reservation)
   (Manage Customer Reservation) <|-down- (View Customer Reservaion)
   (Manage Customer Reservation) <|-down- (Mark Customer as arrived)
   (Mark Customer as arrived) .down.> (Add Customer Info to Order Database) : <<include>>
   OrderDatabase - - (Add Customer Info to Order Database)
   (Mark Customer as arrived) .up.> (Update Reservation) : <<include>>

}






@enduml

PlantUML version 1.2018.14(Fri Dec 21 22:03:16 IST 2018)
(GPL source distribution)
Java Runtime: OpenJDK Runtime Environment
JVM: OpenJDK 64-Bit Server VM
Java Version: 11.0.8+10-post-Ubuntu-0ubuntu120.04
Operating System: Linux
OS Version: 5.4.0-47-generic
Default Encoding: UTF-8
Language: en
Country: IN
-->
    </g>
</svg>